<?xml version="1.0" standalone="no"?>
<!DOCTYPE svg PUBLIC "-//W3C//DTD SVG 20010904//EN"
 "http://www.w3.org/TR/2001/REC-SVG-20010904/DTD/svg10.dtd">
<svg version="1.0" xmlns="http://www.w3.org/2000/svg"
 width="706.000000pt" height="353.000000pt" viewBox="0 0 706.000000 353.000000"
 preserveAspectRatio="xMidYMid meet">

<g transform="translate(0.000000,353.000000) scale(0.100000,-0.100000)"
fill="#000000" stroke="none">
<path d="M3495 3329 c-87 -30 -167 -92 -285 -221 -183 -200 -314 -329 -355
-350 -61 -32 -295 -108 -331 -108 -38 0 -41 -3 -50 -57 l-6 -41 363 -5 c398
-5 476 -13 641 -68 206 -68 367 -177 608 -415 119 -117 223 -185 351 -230 38
-13 76 -24 84 -24 16 0 75 114 75 142 0 7 -40 32 -88 55 -122 59 -175 101
-347 277 -173 176 -289 267 -430 336 -167 83 -224 94 -470 94 -160 0 -248 -5
-370 -22 -88 -12 -169 -22 -180 -21 -19 1 339 79 530 115 128 25 358 25 445 0
151 -43 331 -149 475 -278 176 -157 274 -221 408 -263 43 -14 80 -25 83 -25 2
0 4 29 4 65 l0 66 -47 20 c-92 39 -164 92 -310 224 -223 204 -375 306 -535
360 -70 24 -100 28 -193 28 -135 1 -217 -19 -406 -99 -244 -103 -243 -104 -29
22 324 191 397 219 549 212 190 -10 316 -80 673 -371 74 -60 253 -165 264
-155 2 3 -5 32 -17 65 -18 53 -27 65 -72 96 -29 19 -117 94 -197 166 -399 365
-633 479 -835 410z m-828 -665 c-3 -3 -12 -4 -19 -1 -8 3 -5 6 6 6 11 1 17 -2
13 -5z"/>
<path d="M2453 2493 c-4 -10 -7 -63 -8 -118 l0 -100 125 -21 c335 -56 533
-119 734 -231 159 -90 276 -185 491 -405 110 -112 220 -217 243 -233 l44 -29
42 23 c53 28 180 128 184 144 1 7 -11 21 -28 31 -67 39 -155 123 -279 264
-412 472 -670 604 -1297 667 -82 8 -170 17 -197 20 -39 5 -48 3 -54 -12z"/>
<path d="M2450 2158 c0 -13 9 -59 20 -103 99 -410 418 -723 836 -821 59 -14
119 -18 236 -19 86 0 160 3 163 7 10 10 -13 44 -129 187 -309 382 -559 568
-968 720 -75 28 -141 51 -147 51 -6 0 -11 -10 -11 -22z"/>
<path d="M6658 940 c-57 -17 -97 -51 -120 -101 -21 -44 -26 -49 -55 -49 -23 0
-33 -5 -33 -15 0 -10 11 -15 35 -15 l35 0 0 -215 0 -215 95 0 95 0 0 215 0
214 55 3 c30 2 55 8 55 13 0 6 -25 11 -55 13 l-55 3 0 64 c0 64 1 65 26 65 15
0 46 -10 70 -22 45 -22 61 -20 50 7 -14 37 -127 57 -198 35z"/>
<path d="M230 635 l0 -305 95 0 95 0 0 176 0 176 37 34 c24 22 47 34 65 34
l28 0 0 -210 0 -210 96 0 96 0 -4 188 c-3 203 -8 222 -63 258 -55 36 -157 26
-213 -21 -17 -14 -34 -25 -38 -25 -5 0 -9 46 -9 102 l0 103 -92 3 -93 3 0
-306z"/>
<path d="M1450 635 l0 -305 90 0 90 0 0 305 0 305 -90 0 -90 0 0 -305z"/>
<path d="M2668 923 c-46 -54 -292 -430 -292 -448 -1 -19 6 -20 129 -25 l130
-5 3 -57 3 -58 109 0 110 0 0 59 0 60 48 3 c34 2 47 7 47 18 0 12 -10 14 -47
12 l-48 -4 0 231 0 231 -88 0 c-72 0 -92 -3 -104 -17z m-30 -280 l-3 -158
-107 -3 c-60 -1 -108 1 -108 5 0 13 203 313 212 313 5 0 7 -71 6 -157z"/>
<path d="M6190 635 l0 -305 95 0 95 0 0 305 0 305 -95 0 -95 0 0 -305z"/>
<path d="M1045 793 c-92 -20 -146 -62 -181 -138 -55 -118 -10 -243 111 -308
54 -29 193 -31 245 -3 45 23 80 56 80 73 0 21 -17 15 -65 -21 -45 -34 -105
-52 -156 -44 -23 3 -24 6 -27 96 l-3 92 141 0 140 0 0 48 c-1 138 -139 238
-285 205z m94 -29 l31 -6 0 -89 0 -89 -60 0 -60 0 0 89 c0 104 7 111 89 95z"/>
<path d="M1997 786 c-20 -8 -40 -10 -43 -5 -3 5 -43 9 -90 9 l-84 0 0 -300 0
-300 85 0 85 0 0 76 0 76 28 -8 c15 -5 61 -9 103 -9 67 0 81 4 125 30 30 19
60 49 79 80 27 44 30 57 30 129 0 71 -4 86 -28 123 -59 92 -187 135 -290 99z
m103 -227 l0 -212 -46 7 c-25 3 -58 12 -73 19 l-26 12 -3 172 c-2 169 -2 172
20 184 31 17 68 27 101 28 l27 1 0 -211z"/>
<path d="M3424 763 c-52 -128 -88 -209 -95 -217 -5 -5 -35 46 -68 117 l-60
127 -95 0 c-53 0 -96 -3 -96 -6 0 -4 52 -107 115 -230 l116 -223 -21 -41 c-12
-23 -37 -50 -56 -62 -37 -22 -43 -35 -18 -45 22 -8 55 12 82 51 33 49 241 537
235 552 -9 24 -24 15 -39 -23z"/>
<path d="M3656 781 c-98 -40 -150 -116 -150 -221 0 -169 154 -277 327 -229 48
13 112 70 140 123 27 53 29 156 3 206 -60 117 -199 169 -320 121z m206 -43
c21 -10 50 -37 65 -60 24 -36 28 -51 28 -118 0 -67 -3 -82 -28 -119 -31 -46
-109 -91 -159 -91 l-28 0 0 210 0 210 43 -6 c23 -4 59 -15 79 -26z"/>
<path d="M5039 785 c-15 -8 -40 -35 -55 -60 l-29 -45 -5 52 -5 53 -92 3 -93 3
0 -231 0 -230 94 0 94 0 4 143 c3 135 4 145 32 195 29 52 46 63 95 59 30 -3
50 26 35 51 -14 22 -43 25 -75 7z"/>
<path d="M5256 785 c-80 -28 -118 -92 -96 -159 11 -33 98 -124 173 -181 51
-38 62 -59 40 -81 -24 -24 -134 -14 -174 15 -33 24 -49 27 -49 8 0 -37 75 -67
164 -67 175 0 266 144 160 253 -19 20 -66 62 -104 92 -72 58 -87 88 -49 100
29 9 88 -3 126 -26 39 -24 59 -6 24 22 -47 39 -144 49 -215 24z"/>
<path d="M5774 791 c-54 -13 -112 -53 -146 -100 -29 -41 -33 -55 -36 -121 -4
-92 20 -148 86 -197 68 -51 165 -67 255 -42 42 11 107 63 107 85 0 22 -19 17
-56 -16 -39 -33 -99 -53 -152 -48 l-37 3 -3 92 -3 92 143 3 143 3 3 27 c6 54
-18 111 -67 159 -64 62 -144 82 -237 60z m114 -27 c21 -6 22 -11 22 -95 l0
-89 -60 0 -60 0 0 89 c0 77 2 90 18 94 26 7 55 7 80 1z"/>
<path d="M4110 610 c0 -204 8 -237 62 -270 60 -36 180 -18 240 37 17 15 18 14
18 -15 l0 -32 95 0 95 0 0 230 0 230 -95 0 -95 0 0 -174 c0 -194 -4 -207 -75
-241 -65 -30 -65 -30 -65 205 l0 210 -90 0 -90 0 0 -180z"/>
</g>
</svg>
