<svg xmlns="http://www.w3.org/2000/svg" viewBox="50.18 10 299.43 380.08"><g fill="#000000"><path d="M125.5 178zm145.88 52c-7.8 -19.72 -14.98 -27.62 -31.58 -40.14a37.58 37.58 0 0 0 -6 -3.28c0 -5.8 10.5 -9.66 11.56 -12.54s-2 -6.22 -5.36 -5.84c2.44 -2.12 4.4 -5 2.6 -7.68 -1.4 -2.12 -4.2 -2 -6.66 -1.24 1.46 -2 2.34 -3.82 1.08 -5.86a5.44 5.44 0 0 0 -4 -2.48c-2 -0.34 -7.86 3.72 -12.48 7.54 5.04 -6.44 8.78 -14.66 7.82 -22.7a120 120 0 0 0 -5.34 -21.9c2.62 -2 2.96 -4.88 2.36 -8.12a22.44 22.44 0 0 0 -4.54 -10c-0.5 -0.46 -0.86 -0.6 -2 -0.32 -0.54 0.16 -1.48 0.5 -2.6 0.96a183.12 183.12 0 0 0 -3.74 -8.14 6.3 6.3 0 0 0 2.74 -2.96 40 40 0 0 0 4.64 -12.4c0.64 -4.4 -0.16 -11 -3.42 -14 -1.78 -1.7 -4.54 -2.58 -6 -4.46 -5.34 -6.76 -11.04 -11.76 -19.56 -10.36 -4.92 0.82 -7.78 3.88 -12 6a39.32 39.32 0 0 1 -13.02 3.2c-12.86 0.28 -26.96 0 -35.78 9.34 -9.52 10 -12.9 23.66 -12 37.36 0.3 4.2 2.38 7.36 3.14 11.12 0.38 1.8 -1.26 3.6 -1.6 5.52 -1.12 6.28 2 14.76 5.64 19.86 3.38 4.64 8 4.42 12.2 6.46 3.28 1.58 4.68 5.08 8.94 6.5a7.7 7.7 0 0 0 8 -2c-0.16 4.22 -0.58 15.44 -0.78 21.18 -0.98 -0.18 -9.46 4.46 -10.34 4.94a1.74 1.74 0 0 0 -1.04 -0.44c-61.72 10.74 -88.38 87.84 -91.6 150 -0.38 7.54 -1.82 56 3.26 58.46a0.34 0.34 0 1 0 0.3 -0.62c-4.22 -2.5 -2.38 -52.96 -2.08 -58.02 3.5 -60.12 28.6 -134.52 88.52 -148 -4.5 2.72 -8.38 5.62 -8.16 7.38 0.3 2.36 33.54 28.8 35.38 30.28 0.18 0.52 3.54 9.54 7.68 22.62 -4.86 4 -10.88 9.42 -16.68 15.14 -1.38 -19.66 -12.46 -52.18 -34 -57.86 -5.66 -1.44 -14.34 0 -18.32 4 -0.34 0.3 0.14 0.82 0.48 0.5 3.86 -3.6 12.32 -4.58 17.46 -3.08 9.38 2.66 16.38 10.64 21.24 19.14a111.04 111.04 0 0 1 12.26 38.2 137.3 137.3 0 0 0 -16.24 18.74 0.36 0.36 0 0 0 0.58 0.4c10 -14.62 37.76 -38.3 43 -40.64 4.22 4.18 26 28.6 28.74 33.48 -15.48 29.68 -38.32 69.24 -71.52 67.8 -42 -1.76 -54 -32.12 -66.34 -52.74a0.34 0.34 0 1 0 -0.6 0.34c6.34 10.98 12.98 26 25.28 37.46 11.68 10.86 25.6 15.8 41.58 16.56 13.24 0.6 24.8 -5 34.94 -13.84 2.1 2.62 8.62 6.18 17.32 9.8 2 26.56 0 44.86 -2 54.78a0.34 0.34 0 0 0 0.68 0.14c2 -9.88 4.28 -28 2.5 -54.42 5.2 2.14 11.12 4.28 17.28 6.26 2 42 4.74 39.18 4.84 49.3a0.36 0.36 0 0 0 0.7 0c0.1 -9.84 -2.36 -5.3 -3.9 -48.78a227 227 0 0 0 26.9 6.84c7.22 44.12 7.34 43.6 8 44 4.78 2.3 8.74 2.68 15.86 3.34a103.04 103.04 0 0 0 15.06 -1.86 2 2 0 0 0 1.4 -1.66c0.22 -0.96 -3.36 -20.36 -5.72 -48 9.8 -6.54 14.22 -16.36 15.5 -27.26 2.78 -23.74 -8.84 -50.38 -13.18 -63.56 -2 -6.22 -4.94 -11.74 -7.28 -17.74zm-38.42 -77.38c2.24 0.34 3.42 2.22 2.92 3.48 -2.3 5.78 -10.16 7.5 -12 10.7a25.82 25.82 0 0 0 -2.86 8 0.74 0.74 0 1 0 1.46 0.26 25.46 25.46 0 0 1 2.68 -7.52c0.84 -1.38 4.8 -3.48 6.28 -4.32 0.64 0 4.52 -3.06 8.24 -2.72a2.2 2.2 0 0 1 2 2.82c-1.14 4 -8.94 7.38 -10.34 8.98a16.44 16.44 0 0 0 -3.82 5.1 15.18 15.18 0 0 0 -0.82 2.64 0.34 0.34 0 1 0 0.64 0.24c4.8 -8.66 9.38 -9.6 12.62 -10.38s6 2.94 2.56 5.06c-4 2.46 -7.78 5.06 -9.76 9.46 -0.96 2.12 0.12 6 0.7 8.32 0.86 3.44 1.64 8.68 0.5 12 -1.76 5.18 -7.44 13.44 -10.72 17.58 0 0 -0.24 0.64 -0.62 1.68a25.26 25.26 0 0 0 -8.6 -4.98c1 -1.42 1.54 -2.64 1.28 -3.34 -1 -2.7 -7.06 -5.74 -11.16 -6.86a25.26 25.26 0 0 0 2 -2.84c0 0.84 -0.28 -14.6 -1.1 -22 -0.52 -4.7 -3.54 -13.74 0.56 -14.92s6.54 10 7.08 14.3a0.82 0.82 0 0 0 1.64 -0.1c-0.16 -1.86 -1 -14.22 1.66 -18 2.22 -3.1 14.86 -12.98 16.98 -12.64zM192 222.78c-0.54 0.72 -1.08 1.42 -1.56 2l-7.68 -11.62a30.96 30.96 0 0 1 12.12 -10.86c0.28 1.12 0.88 4.62 1.66 9.54a46 46 0 0 0 -5.6 6.86 3.52 3.52 0 0 0 1.06 4.08zm1.32 -4.42c0.94 -2 5.78 -8 6.96 -8.24 2 -0.4 9.54 3.56 10.32 5.6a30 30 0 0 1 -8.54 8.84 19.52 19.52 0 0 1 -6.32 -3c-0.92 -0.64 -2.92 -2.22 -2.42 -3.2zm9.08 -9.82a37.2 37.2 0 0 1 -2.9 -7.3 20.76 20.76 0 0 1 5.44 3.2v1.44c-0.5 0.64 -1.24 1.58 -2.12 2.74zm11.06 11.2a26.88 26.88 0 0 1 8.68 6.12c0.76 0.76 2 0.18 -2.86 9.88 -0.46 -3.5 -7.54 -8.8 -10.98 -10.46a47.26 47.26 0 0 0 5.16 -5.54zm-5.74 -52a38.4 38.4 0 0 0 7.38 -4c-2.22 2.52 -2.56 7.72 -2.66 11.08 -0.92 -2.82 -2.44 -6.14 -4.72 -7.12zM227 136c0.9 7.72 -2.9 15.68 -7.74 21.76a31.8 31.8 0 0 1 -16.96 10 22.34 22.34 0 0 1 -13.16 -1.18c-10 -5.06 -12.64 -11.64 -11.38 -18.76 0.42 -2.36 6.66 -3.1 9 -4.66 4.44 -2.98 3.16 -4 7.48 -6.42 2.66 -1.48 6 -5.74 8.42 -6.9a22.42 22.42 0 0 1 11.06 -2c5.24 0.68 7.88 0.56 12.42 2.68 0.36 1.82 0.66 3.68 0.86 5.48zm-8.48 -38.66c0.7 -0.22 1.48 -0.66 1.5 -0.38s0.78 1.18 0.84 1.3c2.16 3.48 5 11.24 1.84 13.88 -3.78 3.2 -8 2 -11.38 -1.74 -0.98 -1.06 -5.74 -6.78 -5.38 -7.62 0.66 -1.3 10.92 -4.98 12.58 -5.5zm-58.42 -0.34c2.64 -3.38 14.38 -0.2 22.8 -1.22a34 34 0 0 0 14.6 -5.48c2 -1.36 3.32 -4.54 5.46 -5.22 2.48 -0.8 6.38 2.94 8.52 3.34 1.24 2.54 2.52 5.42 3.84 8.5 -4 1.7 -9.48 4.32 -10 5.5 -0.3 0.58 0.34 2 1.28 3.54a7.18 7.18 0 0 0 -3.26 0.6c-0.66 -0.72 -1.14 -1.2 -1.38 -1.5a0.34 0.34 0 1 0 -0.58 0.38c0.24 0.42 0.58 0.96 1 1.56a10.72 10.72 0 0 0 -3.82 3.24 8.72 8.72 0 0 0 -3.34 -4.44c-3.16 -1.44 -19.66 6.92 -20.74 9.76a5.04 5.04 0 0 0 0.58 3.06 137.88 137.88 0 0 0 -14.6 0.82c0.38 -3.06 1.38 -5.88 0.72 -8.96 -0.84 -4.06 -3.82 -9.98 -1.08 -13.48zm35.24 30.42c-4 2.44 -10.36 3.02 -13.62 -0.36 -2.24 -2.26 -7.1 -9.86 -6.58 -11.26C176 113.56 190 107.34 194 107.22c3.08 -0.1 8.26 16 1.34 20.2zM155.46 168.92c0.58 -24.88 1.16 -24 0 -24.4A23.2 23.2 0 0 1 146 137.44c-4.38 -6.58 2.2 -13.22 8.3 -9.64a3.72 3.72 0 0 1 2.24 3.02c0.6 2.4 1.5 6.72 4 6 4.92 -1.6 -0.16 -11.2 0 -15.76a72 72 0 0 0 15.02 -1.7A44.56 44.56 0 0 0 180.7 128c3.72 4 10.78 3.7 15.52 0.86 5.36 -3.24 4.9 -11.84 2.74 -17.62a43.2 43.2 0 0 1 4.46 -2.8c2.58 3.56 6.58 8.5 7.82 10.58 0.34 0.62 0.46 0.7 0 1.36a17.82 17.82 0 0 1 -4.64 4.38 0.34 0.34 0 0 0 0.32 0.62c2 -0.86 6.36 -3.52 6.2 -5.84s-7.06 -10 -8.62 -11.7a7.7 7.7 0 0 1 2.62 -0.92c1.2 1.86 2.62 3.7 3.1 4.3 3.3 4 7.58 5.54 11.64 3.42a148.3 148.3 0 0 1 4 14.86c-5.32 -2.6 -16.58 -4.78 -24 -1.26 -2.58 1.24 -6 5.48 -8.54 6.84 -4.96 2.7 -3.2 3.52 -7.62 6.48 -2.22 1.48 -9.08 2 -9.72 5.8 -1.66 9.78 3.64 16 12.5 20.22a26.1 26.1 0 0 0 13.02 1.16c0.62 11.38 1.66 10.26 2.38 18.74 -6.12 10.76 -6.82 11.6 -2.92 20.98 -1.12 0.12 -2.6 1.54 -3.72 2.64 -0.9 -4.9 -1.64 -8.7 -2 -9.38 0.76 -2.64 -32.14 -29.06 -39.78 -32.8zm31.6 60.56c-0.88 -0.92 -1.16 -1.4 -2 -1.14a44.72 44.72 0 0 0 -8.16 5.82c-2 -6.56 -4.26 -13.08 -6.54 -19.52 8.86 6.98 8.34 6.38 8.7 6.3 1.28 -0.22 0 -1.24 2.7 -6 2.54 3.88 5.1 7.74 7.56 11.48 -0.1 0.06 -2.2 2.88 -2.26 3.06zm0.42 0.44c0.26 0 -0.28 0.3 5.1 -6.54a13.62 13.62 0 0 0 1.7 1.42c1.6 1.16 7.78 4.84 9.46 4a22.32 22.32 0 0 0 4 -3.02c4 2.48 9.2 6.9 10.12 11.8 -2.42 6.9 -5.06 14.46 -6.64 18.72 -4.18 -4.62 -14 -16.3 -23.74 -26.3zm28.26 33.82a0.82 0.82 0 0 0 0 -0.56 22.12 22.12 0 0 0 -4 -5.68c0.18 -0.36 4.84 -12.7 6.5 -18.72a0.96 0.96 0 0 0 1.32 -0.36 53.3 53.3 0 0 0 4 -8.58c2.52 16 5.4 34.18 8.32 52.44 -5.8 -0.72 -17.6 -2 -23.46 -2l-0.36 -2.46c2.82 -4.84 5.34 -9.56 7.68 -14.08zm35.08 121.52s-2.7 -16.22 -7.02 -42.14a99.14 99.14 0 0 0 10.9 1.28c9.26 43.1 8.54 41.3 9.14 41.02s1.16 1.14 -8 -40.96a30.56 30.56 0 0 0 18.96 -5c3.82 44.68 6.82 45 5.54 46.96a114 114 0 0 1 -14.52 1.84 54.84 54.84 0 0 1 -15 -3zm14.24 -43.26c-17.42 5.58 -81.28 -16.44 -86.46 -24 20.34 -18.48 24 -32.66 27.56 -36.18 2.12 -0.7 18 0.84 20.22 1.06 29 2.92 31.02 5.08 31.24 4a0.34 0.34 0 0 0 -0.28 -0.42c-4.28 -0.88 -9.3 -1.76 -14.52 -2.54 0.3 -5.78 0.9 -12.82 0.46 -34.2a0.34 0.34 0 1 0 -0.68 0 209.36 209.36 0 0 0 -0.52 34.14c-2.76 -0.42 -5.58 -0.8 -8.34 -1.16 -10.56 -63.58 -9.86 -58.66 -9.56 -59.44 3.56 -4.48 9.18 -12.38 11.1 -17.78 2 -5.82 -1.02 -14.56 -1.34 -18a33.82 33.82 0 0 1 5.44 3c16.78 12.78 23.44 20 31.04 40 2.26 6 5.2 11.74 7.1 17.66s6.54 17.7 9.78 31c6.7 27.78 5.06 54.04 -22.24 62.86z" stroke-width="1"/><path d="M182.62 148.6c-0.32 0.42 -0.12 0.92 0 1.44a0.76 0.76 0 0 0 1.5 0c0 -2.04 -1.08 -2.04 -1.5 -1.44zm6.54 8.88c-0.8 -0.66 -1.74 0.5 -1.02 1.1 1.1 1.7 1.62 0.86 1.62 0.34a2.24 2.24 0 0 0 -0.6 -1.44zm3.86 -12.84a0.82 0.82 0 0 0 -1.02 1.02c-0.26 3.58 2.8 -0.38 1.02 -1.02zM197.18 154c0 -1.06 -2 -1.08 -1.38 0.56a0.76 0.76 0 1 0 1.5 0 2.8 2.8 0 0 0 -0.12 -0.56zm2.82 9.4a0.74 0.74 0 0 0 1.46 -0.2c0.04 -1.88 -2.22 -1.48 -1.46 0.2zm8.66 -13.78c-0.58 -0.46 -1.54 0 -1.2 1.08s1.64 0.94 1.64 0a2.32 2.32 0 0 0 -0.44 -1.08zm1.04 8.94c-0.7 0.42 -0.18 1.48 -0.12 1.6a0.76 0.76 0 0 0 1.34 -0.68c-0.1 -0.2 -0.24 -1.48 -1.22 -0.92zm10.3 -9.5a0.76 0.76 0 0 0 -1.1 0.8 5.32 5.32 0 0 1 0 0.56 0.76 0.76 0 0 0 1.5 0c0.02 -1.12 -0.24 -1.24 -0.4 -1.36zm3.4 -7.66c-0.18 0.52 0.38 1.24 0.46 1.32 0.72 0.7 1.78 -0.36 1.08 -1.04 -0.94 -1.24 -1.4 -0.72 -1.54 -0.28zm-6.58 -1.4a0.76 0.76 0 0 0 -1.1 0.88 0.84 0.84 0 0 0 0.8 1c1.06 -0.1 0.82 -1.7 0.3 -1.88zm3.48 -8.24a0.76 0.76 0 1 0 1.48 -0.2c0.22 -1.08 -1.68 -1.56 -1.48 0.2zm-8 1.1c-4.3 -1.14 -10.68 4.12 -10.3 11.14a0.36 0.36 0 0 0 0.7 0c1.08 -5.66 6.32 -10.48 9.5 -10.44a0.34 0.34 0 1 0 0.1 -0.7zM210.84 106a2 2 0 0 0 1.82 1.2 2 2 0 0 0 1.84 -2.82 26.8 26.8 0 0 0 -1.22 -2.54 2 2 0 1 0 -3.5 2c0.38 0.68 0.7 1.44 1.06 2.16zm-7.58 -11.26a53.86 53.86 0 0 1 7.76 -1.22 0.34 0.34 0 0 0 0.14 -0.68 7.46 7.46 0 0 0 -8.28 1.32c-0.4 0.24 0 0.82 0.38 0.58zm-15.78 17.96a2 2 0 0 0 -3.44 2c1.08 1.84 1.18 4 3.16 4a2 2 0 0 0 1.8 -2.7c-0.54 -1.14 -1 -2.34 -1.52 -3.3zm-14.4 -2.58c1.42 -2.82 10.6 -8.52 14.56 -8.42a0.36 0.36 0 0 0 0.1 -0.7c-5.16 -1.28 -14.16 4.22 -15.3 8.88a0.34 0.34 0 0 0 0.64 0.24zM336 100.9c2 -0.98 15.26 -74.32 13.44 -77.8 -0.36 -0.7 -1.48 -0.96 -2.32 -1.14 -5.46 -1.24 -34.14 -3.18 -36.88 -0.54 -3.22 3.1 4.42 78.74 5.26 78.46 1.28 2.92 18.7 1.9 20.5 1.02zm-11.44 9.4a10.24 10.24 0 0 0 -8.28 12.86c2.72 9.68 18.74 14.46 22 1.14a12.6 12.6 0 0 0 -0.28 -7.1c-1.62 -4.94 -8 -7.82 -13.44 -6.9zM284 126.42a12.78 12.78 0 0 0 -0.14 -7.1c-1.68 -4.96 -8.14 -7.84 -13.52 -6.92a10.28 10.28 0 0 0 -8.28 12.88c2.78 9.72 18.82 14.38 21.94 1.14zm3.74 -111.86c-14 -9.3 -39.44 -3.54 -48.1 9.7a31.42 31.42 0 0 0 -5.2 13.52 31.42 31.42 0 0 0 2 14.3c0.74 2.36 14.58 1.16 18 0.22a3.24 3.24 0 0 0 2 -1.14c1.14 -2.34 -4.56 -9.34 2 -17.02 5.56 -6.62 17.44 -5.08 22.38 2.92 6.28 10 -1.38 22.28 -10.64 29.64 -3.62 2.88 -11.36 6.66 -12.38 9.28 -2.22 5.72 0.46 23.64 1.6 25.8a1.82 1.82 0 0 0 1.18 0.84c3.34 1.06 16.44 0 19.34 -1.44a2 2 0 0 0 1.18 -1.72c0.66 -3.02 0 -11.22 -0.36 -14.3 5.12 -4.86 14.64 -14.44 18.14 -20.58 8.62 -15.44 4.1 -39.86 -11.14 -50.02z" stroke-width="1"/></g></svg>