<svg xmlns="http://www.w3.org/2000/svg" viewBox="63.5 9.98 273.05 379.89"><g fill="#000000" fill-rule="evenodd"><path d="M174.68 170.92c-0.28 0.54 -1.1 6 2.12 6a2.34 2.34 0 0 0 2.32 -2c0.68 -6.12 -3.32 -6.1 -4.44 -4zm29 -0.08c0.18 2.12 0.42 4 2.54 4a2.34 2.34 0 0 0 2.32 -2 13.48 13.48 0 0 0 -0.42 -3.82c-1.16 -2.14 -4.74 -1.62 -4.44 1.82zm-14 19.32c0.62 0 6 -0.26 7.26 -1.24 0.38 -0.28 0.34 -0.82 0.34 -1.32a112.7 112.7 0 0 0 -1.64 -16.92c0 -0.3 -0.26 -0.36 -0.42 -0.32s-0.24 0.32 -0.22 0.8c0 1.64 -0.14 2.2 0.44 11.38 0.38 6 0.22 4.32 0.34 5.32a38.88 38.88 0 0 1 -5.76 1.62c-1.3 0.28 -0.38 0.68 -0.34 0.68zM196 204a11.86 11.86 0 0 1 -4.8 1.38 0.32 0.32 0 1 0 0 0.64 6.64 6.64 0 0 0 8.84 -5.46 0.32 0.32 0 1 0 -0.62 -0.16A9.74 9.74 0 0 1 196 204zM106.36 49.76c5.14 17.18 23.32 16.34 25.44 17.62 0 0.2 4.16 16.22 5.84 18.42 0.94 1.22 3.2 0.74 4.7 0.46 3.52 -0.7 7.6 -0.92 10.58 -3.3 0.76 -0.62 0.32 -3.14 0.12 -4a80 80 0 0 0 -2.64 -10.62 26.9 26.9 0 0 1 -1.12 -3.22 27.16 27.16 0 0 1 4.48 -3.22 31.2 31.2 0 0 0 6.96 -6.5 28.82 28.82 0 0 0 -3.66 -36.86C142.24 4 115.44 8.74 106.74 27.08c-2.98 6.36 -2.4 16 -0.38 22.68zM152 82c-2.66 2.14 -6.58 2.42 -10 3.12 -0.92 0.2 -3.1 0.74 -3.68 0a15.84 15.84 0 0 1 -2.4 -5.4 61.86 61.86 0 0 0 15.08 -4.12A21.56 21.56 0 0 1 152 82zm-1.22 -7.22a90.32 90.32 0 0 0 -15 4.16 54.44 54.44 0 0 0 -2 -6.84 56.46 56.46 0 0 0 15.06 -3.72 52 52 0 0 1 2 6.48zM108 27.7c8.38 -17.32 34 -21.7 48 -8a27.32 27.32 0 0 1 3.56 34.72c-3.46 4.88 -10.46 8.24 -11.54 10 -0.38 0.62 0.32 2.2 0.76 3.32 -2.28 0.44 -4.78 0.98 -7.02 1.48 -0.6 -2.74 -3.4 -13.8 -4.44 -16.4 -0.4 -1.04 -0.76 -0.96 -1.82 -0.66 -5.84 0 -12.26 -1.48 -14.32 -6.98a9.08 9.08 0 0 1 -0.52 -2c-0.28 -2.88 2 -6.24 4.52 -6 -0.36 2.2 0 6.4 1.88 7.66s4 -0.74 4 -2.54A8 8 0 0 0 127.04 36a5.38 5.38 0 0 1 7.86 -2.34c-1.58 3.08 0 10.14 2.8 8.48s1.88 -5.74 0.14 -8c-0.84 -1.1 -1.02 -0.8 -0.6 -1.12 3.26 -2.38 6.96 0.38 8.52 4C148 42 143.2 48.14 140.16 50a0.32 0.32 0 0 0 0.34 0.56c3.72 -2.18 8.42 -8.6 6.28 -14s-7.52 -7.48 -10.92 -4.26a6.94 6.94 0 0 0 -10.36 3.12c-3.72 -0.48 -6.86 3.86 -6.44 7.8a10.52 10.52 0 0 0 5.9 8.14c1.88 0.9 8.56 2.54 11.2 1.78 0.92 2 4.26 13.74 4.86 16.2 -8.88 2 -7.08 2.94 -7.52 1.64 -0.52 -1.62 -0.84 -4 -1.28 -4.16 -11.04 -2.5 -21 -4.34 -24.72 -17.44 -1.82 -6.34 -2.3 -15.74 0.5 -21.68zm18.56 9.88a6.48 6.48 0 0 1 2.7 4.66c0 0.54 -1.22 2 -2 0.4a11.08 11.08 0 0 1 -0.62 -5.06zM136 34.52c1.6 1.56 2.6 5.2 0.86 6.26a7.3 7.3 0 0 1 -0.86 -6.26zM76 110.86c8.14 -2.54 18 -0.34 21.8 8.66 6.58 15.24 -10.82 23 -10.64 23.8 0.4 2 1.12 5.5 1.42 7.52a0.64 0.64 0 0 0 1.28 -0.18c-0.24 -2 -0.5 -4.88 -0.78 -6.96a27.14 27.14 0 0 0 7.74 -4.74c14.12 -16.66 -1.64 -37.68 -21.78 -31.1a16 16 0 0 0 -11.5 14.54c-0.64 7.88 5.64 14.68 15.78 13.8a0.66 0.66 0 0 0 0 -1.3c-9 0.46 -13.82 -6 -12.96 -12.2A13.32 13.32 0 0 1 76 110.86zm149.38 -52.18a0.66 0.66 0 0 0 0.34 -1.28c-8.66 -2.44 -11.16 -10.1 -8.36 -15.72a13.34 13.34 0 0 1 13.04 -8c15.04 0.38 21.64 14.22 16 24.1 -3.74 6.76 -8.74 8.58 -15.14 9.42a0.94 0.94 0 0 0 -0.8 0.8c-0.22 1.84 -0.7 5.46 -1.06 7.56a0.64 0.64 0 0 0 1.26 0.26c0.46 -2.16 1.08 -4.7 1.5 -6.84a26.98 26.98 0 0 0 8.84 -2c6.78 -4 10.9 -10.32 10.36 -18.32 -1.26 -18.78 -28.66 -25.5 -36.54 -8 -3.06 7.12 0.66 15.78 10.56 18.02zm111.12 93.84a18.8 18.8 0 0 0 -3.8 -10.22 23.86 23.86 0 0 0 -17.16 -8 16 16 0 0 0 -15.58 10c-3.14 7.26 0.64 15.72 10.5 18.12a0.66 0.66 0 1 0 0.32 -1.26c-8.6 -2.6 -11.16 -10 -8.34 -15.72a13.34 13.34 0 0 1 13.04 -8 20.52 20.52 0 0 1 14.66 6.76 15.7 15.7 0 0 1 3.2 8.46c1.42 17.64 -17.58 17.7 -17.76 19.1 -0.24 2 -0.68 5.52 -1.06 7.56a0.64 0.64 0 0 0 1.26 0.26c0.48 -2.14 1.08 -4.7 1.5 -6.84a27.5 27.5 0 0 0 8.86 -2c6.68 -3.92 10.9 -10.14 10.36 -18.22zM97.48 166c0.86 -3.56 -1.72 -7.3 -4.28 -7a31.4 31.4 0 0 0 -5 -0.14c-4.34 1.04 -6.38 6.72 -2.3 9.5 4.68 3.12 10.74 0.96 11.58 -2.36zm-3.1 -0.4a4.68 4.68 0 0 1 -2.5 1.06c-5.44 0.76 -6.6 -4 -2.94 -5.56l4.3 -0.8c1.86 0.16 2.28 4.14 1.14 5.2zm133.36 -82.4c-4.66 -1.7 -9.7 3.56 -6.4 8s9.84 4.44 11.72 1.48 0.74 -7.44 -1.78 -8c-0.22 -0.1 -1.96 -0.9 -3.54 -1.48zm2.52 8a5.48 5.48 0 0 1 -5.3 -1 4.76 4.76 0 0 1 -1.42 -1.62c-0.58 -1.62 1.5 -3.28 3.02 -3.38l4.32 0.62c1.68 0.9 0.84 4.82 -0.62 5.44zm86.08 97.36c-0.4 -0.18 -2.46 -1.04 -3.52 -1.44 -4.68 -1.7 -9.7 3.56 -6.4 8s9.82 4.44 11.72 1.48 0.74 -7.48 -1.8 -8.04zm-1.02 6.62a5.5 5.5 0 0 1 -5.3 -1 5.08 5.08 0 0 1 -1.42 -1.64c-0.56 -1.6 1.5 -3.26 3.02 -3.36l4.32 0.62c1.68 0.84 0.84 4.74 -0.62 5.38z" stroke-width="1"/><path d="M300 298.88c-4 -19.68 -19.56 -50 -38.24 -57.74l-3.76 -7.86a0.44 0.44 0 0 0 -0.64 -0.18l-4 2.58a41.38 41.38 0 0 0 -11.1 -22.56c4.16 -6.42 10.82 -8.38 17.7 -8.68 5.7 -0.24 9.9 -0.58 13.2 -5.46 6.54 -9.64 5 -19.04 -2.68 -28 -11.7 -13.64 -16.3 -9.56 -22 -17.1 -10.84 -14.16 -13.3 -35.1 -29.26 -46 -20.4 -13.82 -31.4 -2.68 -35.68 0.76 -6.26 -3.8 -20.22 -2.48 -26.22 2.66 -5.1 4.36 -11.86 10 -14.48 16.3 -5.58 13.3 -4.98 29.04 -13.14 41.1 -2 3 -5.42 5.02 -7.84 7.86a68.66 68.66 0 0 0 -8.42 13.52c-2.96 5.6 -5.22 11.82 -2.52 17.62 3.62 7.76 11.72 15.16 20.36 14.6 5 -0.34 11.62 -3.34 16.32 -1.36 2.8 1.16 3.88 3.86 6 6.12 4.8 5.34 16 6.96 22.2 3.26 -6.82 8.68 -17.22 8.38 -35.36 18.38 -27.84 15.32 -38 32.72 -40.98 50.54a158 158 0 0 0 -2.52 16.78c-1.72 29.06 7.1 65.9 35.7 72 7.84 1.68 16.82 2.76 24.58 0.82 14.7 -3.66 32.24 -13.56 45.12 -21.6 6 -3.74 28.2 -18.72 38.52 -20.68a59.14 59.14 0 0 0 4 15.54c8.26 16.98 21.48 27.02 40 22.66 12 -2.82 15.42 -15.6 15.74 -27.84 6.02 -12.92 1.24 -48.64 -0.6 -58.04zm-69.2 -93.64c3.56 0.66 6 4 8.64 6.72 6.98 6.98 11.78 14.46 13.22 24 -5.78 3.68 -9.54 6 -9.62 6.12s-2.86 -6.96 -4.54 -7.82a24.46 24.46 0 0 1 -6.74 -4.94c-1.5 -1.66 -3.34 -4.58 -3.1 -6.78a9.56 9.56 0 0 1 3.42 -1.06v-1.24c-6.18 0.18 -8.3 5.82 -8.86 7.08 -0.4 0.9 -0.96 1.8 -2.24 1.66s-1.74 -1.62 -1.26 -2.94 1.64 -7.12 9.82 -8.38a0.78 0.78 0 0 0 -0.22 -1.56 14.5 14.5 0 0 0 -4.9 1.54 11.04 11.04 0 0 0 -5.74 6.78c-0.96 2.74 -4.32 1.52 -3.52 -0.84a21 21 0 0 1 3.54 -6.32 15.76 15.76 0 0 1 6 -3.58c1.76 -0.72 3.26 -0.38 3.66 -0.96s-0.54 -2.52 -1.02 -3.1c-2.58 -3.08 -10 -0.42 -12.84 -3.86 -1.82 -2.26 2 -2.34 3.54 -2.54 4.32 -0.48 8.42 1.2 12.76 2.02zm7.34 49.56a138.76 138.76 0 0 1 -17.46 4.46c2 -11.38 3.36 -21.14 3.16 -24.68 4.66 0.9 10 1.54 15.84 2.5 1.58 2.62 2.44 4.82 2.82 5.44l-3.88 2.46c-0.2 0.26 -0.16 -0.82 -0.48 9.82zm-21.72 57.78a88.48 88.48 0 0 1 1.88 11.66c-8.2 -0.52 -14.46 -0.42 -17.54 -0.54 0.12 -5.62 0.18 -7.36 0.28 -8.54a95.18 95.18 0 0 1 15.38 -2.58zm-31.46 -49.26a192.28 192.28 0 0 0 33.86 -2.76c-3.56 19.2 -8.98 42.28 -11.54 46.9 -5.88 -16.04 -5.28 -16.1 -22.32 -44.14zm24 43.88c3.24 -7.26 8.16 -28.92 11.44 -46.96a134 134 0 0 0 17.62 -4.56c-0.62 21.6 -0.8 48.56 0.5 70.22 -3.8 -0.34 -9.32 -0.82 -14.68 -1.24 -0.34 -3.24 -1.68 -14.52 -2.82 -17.48 -0.3 -0.8 -0.66 -1.12 -2 -1.16a67.7 67.7 0 0 0 -9.96 1.18zm7.14 -76.3a11.58 11.58 0 0 1 -4.64 -5.08 13.82 13.82 0 0 0 2.88 0.86 3.08 3.08 0 0 0 3.06 0.94c0.9 -0.28 0.32 -0.4 0.8 0.86a3.18 3.18 0 0 0 5.28 1.12c0.78 -0.7 0.84 -1.54 1.78 -3.34 0.92 -0.18 1.82 -0.42 2.7 -0.68 2.38 6.24 9.84 9.26 10.36 9.72 -8.78 -1.3 -16.56 -2.12 -22.12 -4.4zm-38.34 -2.4c4.8 -5.56 3.82 -9.54 -1.12 -13.48 -10 -7.84 -8.76 -5.74 -12.96 -14.5 -4.94 -14.22 -0.68 -36.62 2.98 -51.2 1 -4 7.82 -8.28 12.78 -7.64 6.88 0.88 4 4.5 9.88 6.56a12 12 0 0 0 3.14 0.48 0.5 0.5 0 1 0 0.3 -0.96 44 44 0 0 1 -8.56 -6.7c1.22 -4.98 4.32 -7.7 10.14 -7.74 4 0 7.16 3.04 10 5.64 3.44 3.14 7.14 11.62 6.86 16.28a23.42 23.42 0 0 0 3.58 15.42c2 3.48 5.76 6.5 8 9.44 1.24 1.64 0.52 8.96 -0.2 12.18 -0.94 2.82 -2.94 8.2 -3.4 9.42 -8.36 0.3 -8 4.78 -4 6.7 -3.74 4.48 -12.88 9.46 -6.34 15.74 1.4 2.94 3.64 6.96 6.64 8.18a38.26 38.26 0 0 0 6.58 2c0.44 3.1 -1 13.36 -3.2 25.3a194.74 194.74 0 0 1 -34.74 2.62c-7.22 -11.82 -14.4 -23.02 -16.22 -24.82a26 26 0 0 0 9.96 -8.92zm-13.64 10.54c4 -1.5 2 -1.24 2.96 -0.5s7.56 11.2 15.22 23.62c-9.08 -0.14 -19.3 -0.82 -23.16 -1.26 1.16 -0.92 -1.84 -16.72 -3 -18.72 2.9 -1.16 5.58 -2.18 8.08 -3.14zm-9.46 3.76a103.18 103.18 0 0 1 3.34 18 117.5 117.5 0 0 1 -25.24 -6.54 139.82 139.82 0 0 1 22 -11.46zm1.82 144.6c-7.5 1.88 -16.28 0.78 -23.84 -0.84 -11.82 -2.54 -20 -10.44 -25.32 -20.56 -8.46 -16 -10.98 -39.78 -8.4 -56.44 0.52 -3.34 1.18 -6.64 1.74 -10 3.18 -19.06 14.76 -33.42 30.92 -44.28 15.86 5.82 26.52 7.86 51.44 8 17.26 28 17.64 30.8 22.58 44.5 -1.52 0.28 -8.56 1.7 -9.76 2.68 -0.48 0.38 -0.48 1.14 0 13.16 -18.2 0.36 -36 3.2 -52.74 14 -2 -14.42 0.3 -18.78 4.96 -27.04 7.32 -12.98 6 -15.38 1.38 -22.76a9 9 0 0 1 -1.6 -3.36c0 -0.48 -2 -1.14 0.82 3.82 4 7.28 5.08 9 -2 21.5 -5.18 9.16 -7.3 13.86 -4.18 28.26 -1.4 0.94 -3 2 -4.54 3.24a50.86 50.86 0 0 0 -6.6 5.54 0.32 0.32 0 0 0 0.58 0.3c0.62 -1.1 10.96 -8 13.74 -9.42 15.52 -7.82 32.68 -14.58 60.78 -12.72a134 134 0 0 0 3.66 35.34c-14.44 9.12 -34.96 22.44 -53.52 27.08zm54.86 -27.88a137.48 137.48 0 0 1 -3.38 -34.4c30.36 2 20.84 1.36 30.64 2 0.36 5.84 0.9 12.18 1.7 18 -7.84 1.46 -21.94 10.06 -28.86 14.4zm72.68 23.8c-17.66 4.18 -30.2 -5.46 -38.16 -21.78 -8.8 -18 -7.34 -96.18 -6.84 -116.1l18.28 -11.32c24.68 53.3 27.64 58.34 33.18 76 7.16 22.5 16.6 67.88 -6.36 73.2zm16.12 -30.6a144.92 144.92 0 0 0 -4.92 -31.68c-6.34 -24.66 -13.2 -37.02 -32.18 -76.92l0.56 -0.3c16.76 8.96 30.96 36.78 34.68 55.36 2.04 9.7 5.94 41.42 1.96 53.54z" stroke-width="1"/></g></svg>